<svg id="Light-switcher" xmlns="http://www.w3.org/2000/svg" viewBox="0 0 111.7 168.8">
  <defs>
    <style>
      .cls-1 {
        fill: #1d1d1b;
      }
    </style>
  </defs>
  <path class="cls-1" d="M81.4,125c-17.7-4.1,8.1-41.7,9.4-43.1a43.4,43.4,0,0,0,8.7-26.2C98.3-.2,17.1-2.7,12.1,52.9a43.8,43.8,0,0,0,8.5,28.9c1.2,1.5,27.2,39.1,9.5,43.2a6,6,0,0,1-6-6C23.5,98.4-4.1,77.6.1,52.2,1.7,6.3,62.3-17.5,94.4,15.6c20.1,18.6,22.8,51.7,6.1,73.4-8,10.7-13.1,22.4-13.1,30A6,6,0,0,1,81.4,125Z" transform="translate(0.3 -0.2)"/>
  <path class="cls-1" d="M79.7,146.8l-48-.3c-7.8.1-7.7-12.1.1-12l48,.3C87.5,134.7,87.5,146.9,79.7,146.8Z" transform="translate(0.3 -0.2)"/>
  <path class="cls-1" d="M73.4,168.9c0,.1-35.5-.2-35.5-.1a6.2,6.2,0,0,1-6-6.1,5.9,5.9,0,0,1,6-5.9H73.4C81.2,156.9,81.2,169.1,73.4,168.9Z" transform="translate(0.3 -0.2)"/>
</svg>
