<svg id="Refresh" xmlns="http://www.w3.org/2000/svg" viewBox="0 0 85.3 83.4">
  <defs>
    <style>
      .cls-1 {
        fill: #1d1d1b;
      }
    </style>
  </defs>
  <path class="cls-1" d="M85.4,11.2a2,2,0,0,0-3.2-1.5l-7.5,6.2C61.2-1.1,34.5-4.3,17.4,9.1S-4.7,50,9.2,67.6C26.7,91.3,63.6,89.1,78.4,64c2.5-4.6-4-8.4-6.7-4.1a32.7,32.7,0,0,1-8.8,9.7C25.9,95.2-12.7,44,22.1,15.4,36,4.5,57.7,7.1,68.6,20.9l-7.9,6.4a2,2,0,0,0,.8,3.5L83.7,36a1.9,1.9,0,0,0,2.4-2Z" transform="translate(-0.8 -0.8)"/>
</svg>
