<svg id="Notes.NET" xmlns="http://www.w3.org/2000/svg" viewBox="0 0 553.6 553.7">
  <defs>
    <style>
      .cls-1 {
        fill: #000;
      }
    </style>
  </defs>
  <g>
    <polygon class="cls-1" points="200.6 220.1 200.6 124.8 183 124.8 183 189.3 130.5 124.8 115.9 124.8 115.9 220.1 133.5 220.1 133.5 155.6 186 220.1 200.6 220.1"/>
    <path class="cls-1" d="M273.1,151.4c-25.6-13.2-58.9,1.3-58.7,32.4s32.9,45.6,58.7,32.5S298.2,164.3,273.1,151.4Zm-4.5,48.8a20.7,20.7,0,0,1-15.5,6.3c-12.8.1-21.8-9.8-21.5-22.7s8.7-22.9,21.5-22.8,21.9,9.8,21.6,22.8C274.7,190.6,272.7,196.1,268.6,200.2Z" transform="translate(0 0)"/>
    <path class="cls-1" d="M307.8,196.6c0,7.9,2.2,14,6.5,18.2,7.6,7.6,25.7,8.6,34.9,1.4L344.4,204c-4,3.5-13.2,4.5-17,.2-1.7-1.8-2.6-4.5-2.6-8.1V161.6h19.5V148H324.8V131.4h-17V148h-12v13.6h12Z" transform="translate(0 0)"/>
    <path class="cls-1" d="M420.8,209.2l-9.1-10.5c-12.1,13.1-40.1,10.1-43.3-9.5h57c2.7-23.5-12.5-42.8-36.5-42.6-21.2-.3-37.8,15.8-37.5,37.2a37.6,37.6,0,0,0,4.9,19.2c7.2,12.3,20.6,18.1,35.2,18.1C403,221,413.6,217.7,420.8,209.2ZM375.1,165a20.7,20.7,0,0,1,13.8-4.8,19.9,19.9,0,0,1,20.6,17.7H368.3A20.9,20.9,0,0,1,375.1,165Z" transform="translate(0 0)"/>
    <path class="cls-1" d="M462.8,207.2c-8.2,0-18.6-2.7-25.3-7.2L431,212.9c7.7,5.4,20.7,8.2,30.8,8.2,16.3-.1,32.5-5.9,32.9-22.5.3-22.1-26.7-18.7-40.8-24.3-5.5-2-5.4-9-.2-11.7,8.7-4.4,23.8-2,32.1,3.2l6.6-12.9c-13.6-7.7-38.3-9.1-50.6-.1a19.4,19.4,0,0,0-8.6,16.5c0,5.3,1.4,9.4,4.1,12.3,8.1,9.5,26.4,8.2,36.9,12.2,2.6,1,3.9,2.8,3.9,5.3Q478.1,207.2,462.8,207.2Z" transform="translate(0 0)"/>
    <path class="cls-1" d="M499,0H101.7A54.6,54.6,0,0,0,47.6,47.7,54.6,54.6,0,0,0,0,101.8V499.3c-.5,29.3,25.3,55,54.5,54.4,0,.1,397.4-.1,397.5,0A54.6,54.6,0,0,0,506.1,506a54.6,54.6,0,0,0,47.5-54.1V54.6A54.7,54.7,0,0,0,499,0ZM451.9,529.7H54.5A30.3,30.3,0,0,1,33,520.8a30,30,0,0,1-9-21.5V101.8A30.7,30.7,0,0,1,47.1,72.1V451.9a54.7,54.7,0,0,0,54.6,54.6H481.6A30.6,30.6,0,0,1,451.9,529.7Zm77.7-77.8A30.6,30.6,0,0,1,499,482.5H101.7a30.6,30.6,0,0,1-30.6-30.6V54.6A30.6,30.6,0,0,1,101.7,24H499a30.6,30.6,0,0,1,30.6,30.6Z" transform="translate(0 0)"/>
    <path class="cls-1" d="M119.6,355.6c-11-.1-16.3,13.6-8.6,21.2a12,12,0,0,0,20.5-8.9A11.7,11.7,0,0,0,119.6,355.6Z" transform="translate(0 0)"/>
    <polygon class="cls-1" points="244 347.2 168.4 253.2 153.6 253.2 153.6 379.2 171.7 379.2 171.7 285.2 247.3 379.2 262 379.2 262 253.2 244 253.2 244 347.2"/>
    <polygon class="cls-1" points="312.6 322.9 375.8 322.9 375.8 307.6 312.6 307.6 312.6 268.9 383.5 268.9 383.5 253.2 294.6 253.2 294.6 379.2 386 379.2 386 363.5 312.6 363.5 312.6 322.9"/>
    <polygon class="cls-1" points="391.8 268.9 435 268.9 435 379.2 452.8 379.2 452.8 268.9 496 268.9 496 253.2 391.8 253.2 391.8 268.9"/>
  </g>
</svg>
